<svg xmlns="http://www.w3.org/2000/svg" viewBox="0 0 1141.68 378.18"><defs><style>.cls-1{fill:#6ea948;}.cls-2{fill:#96c682;}.cls-3{fill:#fff;}.cls-4,.cls-5,.cls-6{fill:none;}.cls-4,.cls-6{stroke:#fff;}.cls-4,.cls-5{stroke-miterlimit:10;}.cls-4{stroke-width:33px;}.cls-5{stroke:#231f20;}.cls-5,.cls-6{stroke-width:4px;}.cls-6{stroke-linecap:round;stroke-linejoin:round;}</style></defs><title>sbol_white</title><g id="Layer_1" data-name="Layer 1"><path class="cls-1" d="M26.51,156.16l4.09-.35c2.7-.22,6.68-.62,11.94-.95C53,154.1,68.39,153.2,88,153.05c4.9,0,10.07-.07,15.48,0s11.08.22,17,.4c11.81.48,24.57,1.16,38.18,2.43a581,581,0,0,1,90.46,15.24A452.27,452.27,0,0,1,299.2,187a361.61,361.61,0,0,1,50.87,24.08c4.25,2.32,8.32,5,12.49,7.58,2.11,1.26,4.1,2.71,6.15,4.09l6.13,4.21a271.08,271.08,0,0,1,23.44,19l2.84,2.57,1.42,1.29,1.39,1.38c1.79,1.8,3.6,3.56,5.39,5.4l5.28,5.74c1.73,1.94,3.37,3.94,5.06,5.92a299.42,299.42,0,0,1,18.68,25.25c11.73,17.55,22.05,36.29,32.52,55.14s21,37.9,33.27,56A277.07,277.07,0,0,0,524,430.71a194.06,194.06,0,0,0,23.49,22.91,164.13,164.13,0,0,0,27.34,18.13l3.67,1.87,1.83.94c.52.28,1.24.57,1.85.86,2.54,1.15,5.09,2.35,7.61,3.36,5,2.16,10.25,4,15.45,5.72a139,139,0,0,0,32.12,6.37,116.52,116.52,0,0,0,16.29-.06,103,103,0,0,0,16-2.66A99.12,99.12,0,0,0,685,483a112.8,112.8,0,0,0,14.38-7.5,141.94,141.94,0,0,0,25.36-20.22c15.4-15.28,28-33.07,39.32-51.26s21.24-37,30.92-55.6c4.84-9.29,9.61-18.53,14.43-27.64q3.62-6.84,7.31-13.56l1.88-3.38,1.91-3.3c1.27-2.19,2.53-4.38,3.8-6.56s2.65-4.32,4-6.47l4-6.41c2.78-4.19,5.61-8.29,8.43-12.38l4.42-6c1.49-2,2.87-4,4.45-5.88l4.6-5.71,2.29-2.84,2.39-2.74a279.8,279.8,0,0,1,40.78-38.87,233,233,0,0,1,45-27.38,227.69,227.69,0,0,1,45.91-15.57,246.5,246.5,0,0,1,43.33-5.62,286.82,286.82,0,0,1,38.37,1.26c5.89.71,11.55,1.28,16.9,2.25,2.68.44,5.31.82,7.85,1.29l7.42,1.52a379.68,379.68,0,0,1,43.93,12.12c5,1.72,8.73,3.18,11.28,4.09l3.87,1.42-1,2.71L1147,180.73l-8.49-2c-1.57-.35-3.18-.78-4.89-1.11l-5.34-1.05-5.74-1.13c-2-.43-4.06-.66-6.17-1-4.24-.7-8.72-1.55-13.51-2.08l-7.33-.94c-2.51-.27-5.09-.45-7.73-.69-5.25-.56-10.78-.7-16.5-1a300.44,300.44,0,0,0-36.81,1.3c-25.94,2.76-54.58,9.92-82.25,24.54-27.77,14.36-54,36.48-76.42,64.56l-2.12,2.61-2,2.73-4.07,5.46c-1.41,1.78-2.64,3.73-4,5.6s-2.62,3.79-3.94,5.68c-2.49,3.9-5,7.85-7.48,11.8-1.15,2-2.31,3.94-3.46,5.93l-1.74,3c-.3.5-.58,1-.88,1.51l-.9,1.66-3.6,6.68-1.81,3.35-1.51,3c-2.24,4.41-4.52,8.86-6.78,13.4-4.52,9.06-9,18.37-13.69,27.84s-9.38,19.1-14.49,28.76-10.47,19.42-16.27,29.17-12.07,19.49-19,29.08c-3.46,4.82-7.2,9.52-11.11,14.19s-8,9.25-12.48,13.7a169.64,169.64,0,0,1-30.17,24.46,141.6,141.6,0,0,1-18,9.6A126.72,126.72,0,0,1,676.63,516a130,130,0,0,1-20.6,3.49,143.51,143.51,0,0,1-20.62.18,167.31,167.31,0,0,1-39-7.52l-4.56-1.53-2.28-.78-2.23-.85-4.45-1.7c-1.51-.61-3.06-1.27-4.58-1.91l-2.29-1-1.11-.48-1-.44-3.81-1.75-.95-.44-.48-.22c-.9-.42-.56-.27-.9-.44l-2.16-1.1-4.32-2.23a192.9,192.9,0,0,1-32.09-21.47,210.91,210.91,0,0,1-26.79-26.47,303,303,0,0,1-21.61-29c-6.51-9.83-12.43-19.72-18-29.51s-10.71-19.58-15.76-29.11-10-18.85-15-27.87-10-17.8-15.27-26.08a282.62,282.62,0,0,0-16.47-23.54l-2.18-2.72-1.09-1.36c-.37-.46-.73-.91-1.08-1.29L391.78,274l-.26-.31-.32-.35-.66-.69-1.31-1.39-2.61-2.77-.66-.69-.32-.35c.05,0-.58-.58,0,0l-1.24-1.2-2.48-2.4a246.5,246.5,0,0,0-20.75-18l-5.5-4c-1.85-1.33-3.63-2.72-5.54-4-3.79-2.49-7.44-5.15-11.31-7.46a349.24,349.24,0,0,0-46.93-24.53,446.22,446.22,0,0,0-47.28-17.36c-15.52-4.85-30.74-8.64-45.34-11.88s-28.63-5.73-41.89-7.87c-26.52-4.08-50-6.45-69.37-7.72-9.7-.62-18.38-1-25.95-1.36s-14-.46-19.24-.51l-16.1-.17Z" transform="translate(-21.91 -141.75)"/><path class="cls-2" d="M1153.23,478l-3.81,1.7c-2.5,1.13-6.25,2.78-11.22,4.81s-11.1,4.43-18.46,7c-1.83.65-3.74,1.33-5.73,2s-4,1.4-6.18,2c-4.29,1.31-8.87,2.64-13.77,3.92-2.45.62-5,1.3-7.56,1.88l-4,.91-4.07.86c-2.75.6-5.6,1.07-8.5,1.62s-5.89,1-9,1.37-6.22.75-9.44,1.09-6.53.48-9.92.59a186.82,186.82,0,0,1-21.16-.38,151.24,151.24,0,0,1-46.18-10.87,155.6,155.6,0,0,1-44.78-28.85c-13.72-12.48-25.72-27.38-36.54-43.3s-20.31-33.11-29.56-50.6-17.93-35.53-27.19-53.38c-4.64-8.92-9.31-17.84-14.2-26.64s-10-17.47-15.41-25.89-11.17-16.58-17.21-24.43a226.45,226.45,0,0,0-19.5-22.1c-3.47-3.43-7-6.73-10.75-9.86s-7.53-6.08-11.43-8.91-7.94-5.48-12.08-8-8.39-4.79-12.76-6.87c-17.44-8.45-36.64-13.72-56.72-16.5l-1.89-.26c-.54-.07.22,0,0,0l-.53-.06-1.05-.12-4.2-.46-1-.11-.84,0-1.69-.12c-1.15-.07-2.21-.19-3.42-.22-2.42-.07-4.85-.23-7.24-.18-1.19,0-2.4,0-3.59,0l-3.55.15a116.18,116.18,0,0,0-14,1.52,112.74,112.74,0,0,0-13.42,3.1,106.16,106.16,0,0,0-25,11.06,129.65,129.65,0,0,0-11.54,8,142.79,142.79,0,0,0-10.89,9.42c-3.53,3.34-6.92,6.93-10.26,10.64s-6.58,7.58-9.72,11.62c-6.3,8-12.22,16.64-17.9,25.54-11.32,17.85-21.87,36.77-32.57,55.88-5.35,9.56-10.77,19.17-16.42,28.73s-11.68,19-18.12,28.3c-3.24,4.64-6.59,9.24-10.09,13.76-1.79,2.25-3.55,4.5-5.42,6.7l-1.38,1.66-.52.62-.32.36-.65.74-2.58,2.94c-.8.93-1.87,2.07-2.84,3.14l-3,3.21c-2,2.05-3.94,4-5.92,6-4,3.9-8.07,7.71-12.26,11.32a268.26,268.26,0,0,1-53.21,36.17,302,302,0,0,1-27.93,12.67c-4.67,1.85-9.34,3.55-14,5.14-2.33.79-4.67,1.5-7,2.25l-7,2.07c-9.28,2.65-18.47,4.84-27.53,6.65l-6.77,1.28-6.71,1.15-6.66,1-6.6.86a445.16,445.16,0,0,1-95.18.91,550.24,550.24,0,0,1-71.56-11.65q-7.32-1.67-13.81-3.29t-12.07-3.27c-7.46-2.11-13.78-4-18.87-5.59-2.55-.78-4.8-1.52-6.72-2.17l-4.86-1.64-3.95-1.35.69-2.71,4,1c2.65.66,6.6,1.61,11.76,2.78,10.32,2.34,25.51,5.6,45,8.67a594.16,594.16,0,0,0,70.82,6.91,464.82,464.82,0,0,0,91.9-5.49,346.64,346.64,0,0,0,51.08-12.4,290.78,290.78,0,0,0,51.46-22.41,251.4,251.4,0,0,0,88-81.66c11.62-17.57,21.88-36.5,32.24-55.71s20.73-38.78,32.56-57.81,25.16-37.53,41.64-53.44A170,170,0,0,1,556,171.58a156.8,156.8,0,0,1,14.15-9.87,133.87,133.87,0,0,1,31.53-14.12c2.75-.86,5.56-1.55,8.36-2.23,1.41-.33,2.83-.59,4.24-.89l2.13-.42,2.13-.34a146.05,146.05,0,0,1,17.18-1.79l4.31-.15c1.44,0,2.87,0,4.31,0,2.87,0,5.73.15,8.6.25,1.43.06,2.87.21,4.31.31s2.89.2,4.28.37l4.2.48c.73.09,1.36.15,2.15.26l2.12.3c22.55,3.16,44.7,9.53,64.92,19.63A197.09,197.09,0,0,1,788.69,203c15.43,15.83,28.21,33.61,39.29,51.83s20.57,36.94,29.42,55.37,17.09,36.64,25.54,54.11,17.1,34.23,26.71,49.66,20.17,29.53,32.1,41.31A150.85,150.85,0,0,0,960.51,471a133.24,133.24,0,0,0,41,19.62,151,151,0,0,0,20.61,4.24,176.65,176.65,0,0,0,19.73,1.52c6.38.15,12.54,0,18.44-.45,3-.15,5.85-.47,8.67-.72s5.59-.6,8.28-1l4-.55,3.89-.63c2.56-.39,5-.88,7.46-1.32,9.68-1.83,18.24-3.91,25.64-5.89s13.64-3.87,18.69-5.43,8.88-2.87,11.47-3.78l3.93-1.34Z" transform="translate(-21.91 -141.75)"/><path class="cls-3" d="M117,470.43l19.46-47.84q31.2,22.17,61.39,22.17,46.4,0,46.4-32.85,0-15.41-10.94-29.37t-45.08-31.31q-34.15-17.36-46-28.55A76.35,76.35,0,0,1,124,296.09,88.32,88.32,0,0,1,117.6,262q0-34.91,25.23-57.91t64.74-23q51.46,0,75.57,19.51l-16,46q-27.76-20.11-58.56-20.12-18.24,0-28.27,9.75t-10,25.36q0,25.88,56.53,53.8,29.79,14.79,43,27.21a83.69,83.69,0,0,1,20.06,29q6.89,16.53,6.89,36.86,0,36.56-28.47,60.17T192,492.2Q150.43,492.2,117,470.43Z" transform="translate(-21.91 -141.75)"/><path class="cls-3" d="M416.25,487.07H325.48V186.43q60-2.87,84.09-2.87,46.19,0,72.23,20t26,57.19q0,35.73-37.29,56.47,55.32,19.51,55.32,80.5,0,41.07-30.6,65.2T416.25,487.07ZM378.16,229.14v72.08q12.16.82,25.53.82,51.46,0,51.47-39.22,0-34.69-46.81-34.7Q396,228.12,378.16,229.14Zm0,113.77V442.3q16,1.44,25.94,1.44,35.25,0,51.16-12.12t15.9-40.25q0-25.67-14.79-37.37T404.7,342.29Q397,342.29,378.16,342.91Z" transform="translate(-21.91 -141.75)"/><path class="cls-3" d="M788.9,487.07V186.23h52.68v253.4H975.71v47.44Z" transform="translate(-21.91 -141.75)"/><path class="cls-4" d="M748.94,325.57c0,65-46.94,125.79-103.19,125.79S545.24,390.59,545.24,325.57s45.6-117.73,101.85-117.73S748.94,260.55,748.94,325.57Z" transform="translate(-21.91 -141.75)"/><path class="cls-5" d="M446.84,639" transform="translate(-21.91 -141.75)"/><polygon class="cls-6" points="623.3 266.41 636.32 264.78 634.69 251.76 584.33 212.6 572.94 227.25 623.3 266.41"/><polyline class="cls-6" points="568.65 169.1 609.46 110.13 641.23 132.12 619.33 136.1 641.23 132.12 637.57 112.01"/><polyline class="cls-6" points="642.76 214.28 677.45 175.68 661.74 161.56 693.16 189.79"/></g></svg>